<svg xmlns="http://www.w3.org/2000/svg" xmlns:svg="http://www.w3.org/2000/svg" x="0px" y="0px"
	 viewBox="0 0 200 200">
 <title>icon</title>
 <g>
  <title>Layer 1</title>
  <path d="m55.00112,0.44416c-1.0045,0.1582 -2.0066,0.3604 -3,0.5764c-1.0082,0.2193 -2.0116,0.4577 -3,0.7554c-1.016,0.3061 -2.0134,0.6659 -3,1.0556c-1.0133,0.4002 -2.02,0.8282 -3,1.3048c-1.7357,0.844 -3.3823,1.8331 -4.9992,2.8842c-0.9994,0.6497 -2.0022,1.31 -2.9568,2.0247c-0.9252,0.6928 -1.844,1.4142 -2.6111,2.2855l-1.2732,1.767l-0.4761,0.9437l-0.3981,0.9637l-0.7801,1.9113l-1.0934,1.8032l-0.7253,0.8611l-1.7307,1.7099c-0.945,0.9047 -1.8899,1.8006 -2.787,2.7539l-2.5934,2.9421c-0.8452,0.9466 -1.6897,1.8983 -2.6651,2.716l-1.9244,1.3835l-0.9861,0.544l-1.9568,0.9691l-1.8333,1.1289l-1.6011,1.5046l-0.7076,0.8812l-1.3102,1.9066l-1.2677,1.9854c-0.6179,0.9906 -1.247,1.9752 -1.8094,2.9992c-0.7109,1.2943 -1.3371,2.6282 -1.8835,4c-0.3915,0.9831 -0.7482,1.981 -1.0355,3c-0.4618,1.6377 -0.7233,3.3245 -1.0039,5c-0.2223,1.3278 -0.409,2.6562 -0.5015,4c-0.1145,1.6628 -0.0868,3.3345 -0.0895,5l0,7l0,37l0,19l0,6c0.0032,2 -0.0288,4.007 0.1705,6c0.1343,1.342 0.3614,2.68 0.6374,4l0.6821,3l0.6111,2l0.7754,2l0.909,2c0.8263,1.72 1.7268,3.413 2.8125,4.985c0.6802,0.986 1.4185,1.937 2.2214,2.826c0.9912,1.097 2.0721,2.119 3.3511,2.876c1.1967,0.708 2.5267,1.061 3.8334,1.497l1.9961,0.825l1,0.59l1,0.718l2,1.742l2,1.946l1.9954,1.995l1.946,2l0.9105,1l1.5493,2l1.054,2l0.375,0.999l0.3396,0.997l0.8387,1.961l1.3086,1.829l1.7415,1.565l0.9607,0.654l0.9853,0.578l1.9954,0.934l2,0.694l1,0.26l1,0.2l2,0.236c1.3339,0.074 2.6645,0.084 4,0.092l4,0.001l21,0l52,0l17,0l5,-0.004c1.67,-0.02 3.35,-0.03 5,-0.325l2,-0.471l1,-0.333l1.996,-0.867l1.96,-1.133l1.816,-1.399l0.794,-0.797l0.692,-0.856l0.568,-0.908c0.518,-0.917 0.784,-1.915 1.094,-2.911l0.289,-0.997l0.35,-0.999l1.041,-1.999l1.548,-1.986l1.867,-1.925l1.946,-1.804l1.869,-1.691l0.885,-0.822c1.087,-0.996 2.148,-2.051 3.455,-2.765l1.869,-0.75l1.964,-0.517l0.994,-0.325l1.963,-1.019l1.855,-1.545l0.856,-0.911l0.8,-0.96l1.424,-1.982l0.637,-0.999c0.583,-0.985 1.144,-1.976 1.658,-3c0.972,-1.938 1.754,-3.949 2.45,-6c0.443,-1.302 0.808,-2.642 1.034,-4c0.222,-1.324 0.283,-2.66 0.311,-4l0.015,-4l0,-13l0,-48l0,-12l-0.015,-4c-0.028,-1.3402 -0.09,-2.6754 -0.311,-4c-0.284,-1.7061 -0.803,-3.3624 -1.348,-5c-0.45,-1.3504 -0.927,-2.696 -1.5,-4c-0.603,-1.3745 -1.308,-2.7011 -2.059,-4c-0.586,-1.0133 -1.195,-2.0213 -1.861,-2.9846c-0.901,-1.3033 -1.88,-2.5536 -3.091,-3.5864l-1.851,-1.3086l-0.964,-0.5263l-1.911,-0.9691l-0.919,-0.544c-0.976,-0.6057 -1.784,-1.4243 -2.594,-2.2253l-1.746,-1.875l-1.869,-1.9815l-2.904,-2.9992l-1.755,-2l-1.383,-2l-0.544,-1l-0.969,-1.9961l-0.526,-0.9892l-1.309,-1.9213c-1.548,-1.9091 -3.553,-3.3656 -5.572,-4.7338c-1.604,-1.0874 -3.264,-2.1156 -4.999,-2.9831c-2.235,-1.1176 -4.61,-1.9381 -7,-2.655c-1.966,-0.5898 -3.966,-1.1282 -6,-1.4213c-1.66,-0.2393 -3.326,-0.2763 -5,-0.2963l-5,-0.0039l-14,0l-40,0l-13,0c-2.333,0.0002 -4.6696,-0.0378 -7,0.0895c-1.0061,0.055 -2.0055,0.1929 -3,0.3495m-1,1.8619c1.6601,-0.2446 3.3259,-0.2711 5,-0.297l4,-0.0039l14,0l42,0l15,0l5,0.0039c1.674,0.0205 3.345,0.0453 5,0.3217c1.358,0.2267 2.698,0.5919 4,1.034c1.009,0.3423 2.013,0.6935 3,1.0941c1.018,0.4128 2.018,0.8645 3,1.3565c1.023,0.513 2.014,1.0742 3,1.6543l1.996,1.2847l1.96,1.4098c1.211,0.904 2.399,1.9234 3.306,3.1412l1.054,1.7862l0.774,1.8889l0.405,0.9391l1.093,1.8001l1.556,1.7099l2.771,2.6651c0.923,0.9418 1.792,1.9219 2.661,2.9136l1.709,1.9776l1.805,1.8719l0.949,0.8341l1.961,1.3442c0.927,0.5577 1.958,0.9094 2.907,1.4243l0.908,0.5139l1.656,1.3442c0.809,0.8028 1.462,1.7589 2.086,2.706c0.844,1.2802 1.607,2.6254 2.323,3.9807c1.19,2.2564 2.179,4.6004 3.041,7c0.353,0.9854 0.636,1.993 0.92,3c0.369,1.3095 0.665,2.6532 0.859,4c0.239,1.6595 0.279,3.3263 0.296,5l0,2l-0.04,1.9992c-0.052,0.978 -0.106,1.9971 -0.39,2.9422l-0.745,1.7407l-1.255,1.2899l-1.675,0.71l-0.935,0.171l-0.971,0.092l-2.985,0.144l-2,0.196l-3,0.43c-0.999,0.123 -1.994,0.202 -3,0.246c-1.331,0.058 -2.668,0.038 -4,0.039l-6,0c-1.332,0.001 -2.669,-0.019 -4,0.039c-1.006,0.044 -2.001,0.123 -3,0.246l-4,0.545c-1.329,0.129 -2.664,0.147 -3.996,0.225l-1.96,0.263l-1.816,0.71l-1.486,1.29l-0.563,0.83l-0.437,0.911l-0.514,1.946l-0.184,1.995l-0.043,3l-0.001,6l0,11l0.001,4l0.014,2l0.094,1.999l0.119,0.996l0.206,0.986l0.745,1.871l1.255,1.545l1.675,1.003l0.935,0.297l0.971,0.194l1.986,0.259l1.999,0.274l1,0.152c0.998,0.133 1.993,0.28 3,0.334c1.998,0.109 3.999,0.089 6,0.09l9,0l4,0.015l2,0.075l2,0.195l4,0.55l2.981,0.298l1.871,0.47l1.545,1l0.575,0.715l0.425,0.83l0.285,0.911l0.17,0.96l0.129,1.982l0.019,2.999l-0.004,4l-0.086,3l-0.084,1l-0.29,2c-0.265,1.342 -0.573,2.675 -0.914,4c-0.346,1.345 -0.703,2.691 -1.169,4c-0.487,1.368 -1.076,2.704 -1.73,4c-1.262,2.501 -2.771,4.921 -4.828,6.852l-1.91,1.549l-1.986,1.054l-1.999,0.715l-1,0.375l-2,1.054c-1.472,0.956 -2.749,2.2 -4,3.42l-2.999,2.981l-1.982,2l-1.871,2l-0.831,1l-1.309,2c-0.516,0.949 -0.815,1.985 -1.178,2.996l-0.375,0.989l-0.463,0.972l-1.309,1.829l-1.742,1.561l-1.946,1.196l-0.996,0.448l-1.999,0.615c-1.636,0.376 -3.332,0.368 -5,0.39l-5,0.004l-17,0l-55,0l-21,0l-5,-0.004c-1.3323,-0.018 -2.6802,-0.007 -4,-0.221c-1.0356,-0.167 -2.0338,-0.443 -2.9961,-0.865l-1.9599,-1.058l-0.9344,-0.656l-0.8781,-0.729l-1.4692,-1.652l-0.5524,-0.908c-0.5186,-0.918 -0.7757,-1.939 -1.1605,-2.911l-0.3928,-0.997l-1.1288,-1.999c-1.0062,-1.467 -2.2974,-2.734 -3.5363,-4l-3.9915,-3.995c-1.8572,-1.823 -3.6906,-3.741 -6,-4.997l-1.9992,-0.838l-1.9861,-0.715l-1.9213,-1.054l-1.7647,-1.549l-1.5401,-1.871l-0.6837,-0.986l-1.2253,-1.995c-1.282,-2.224 -2.3274,-4.581 -3.1805,-7c-0.6885,-1.953 -1.2647,-3.94 -1.5147,-6c-0.1608,-1.325 -0.172,-2.667 -0.1805,-4l-0.0039,-5l0.0046,-4.999l0.054,-1.982l0.0895,-0.96l0.1698,-0.911l0.7099,-1.545l1.2901,-1l1.7407,-0.459l2.9422,-0.229l1.9992,-0.2l2,-0.291c0.9988,-0.131 1.9927,-0.28 3,-0.334c1.9985,-0.109 3.9993,-0.089 6,-0.09l9,0c2.0007,-0.001 4.0015,0.019 6,-0.09c1.0065,-0.054 2.0027,-0.197 3,-0.335l2,-0.309l1.9954,-0.325l0.9853,-0.22l0.9607,-0.31l1.7407,-1.014l1.2901,-1.545l0.7099,-1.871l0.2593,-1.982l0.0578,-2.999l0.0008,-9l0,-9l-0.0008,-5l-0.0185,-2l-0.1288,-1.995c-0.141,-0.991 -0.3634,-1.985 -0.8797,-2.857l-1.2901,-1.545l-1.7407,-1l-1.946,-0.456l-0.9962,-0.092c-1.3334,-0.078 -2.6689,-0.095 -3.9992,-0.225l-4,-0.545c-0.9991,-0.123 -1.9944,-0.202 -3,-0.246l-3,-0.038l-6,-0.001c-1.3322,-0.001 -2.6687,0.019 -4,-0.039c-1.0056,-0.044 -2.0009,-0.123 -3,-0.246l-3,-0.43c-1,-0.118 -1.9938,-0.202 -3,-0.246l-1.9954,-0.054l-0.9853,-0.043l-1.8712,-0.26l-0.8302,-0.285l-0.7145,-0.425l-0.5756,-0.575c-0.5556,-0.7019 -0.7491,-1.5951 -0.8797,-2.4556l-0.1288,-1.946l-0.0185,-1.9954l0,-4c0.0127,-2.0056 0.0069,-4.0107 0.3001,-6c0.3539,-2.4012 1.0696,-4.7362 1.9314,-7c0.5175,-1.3597 1.0859,-2.7044 1.7492,-4c0.7063,-1.3796 1.51,-2.7137 2.3812,-3.9954c1.0981,-1.6155 2.2605,-3.2159 3.8209,-4.4205c1.1337,-0.8751 2.462,-1.4025 3.7308,-2.0393l0.9166,-0.5139c0.9823,-0.5826 1.7851,-1.386 2.5934,-2.1783l0.8611,-0.9112l1.804,-1.946l2.9136,-2.9954l2.9383,-3c0.8833,-0.9528 1.746,-1.9204 2.4745,-3l1.1289,-1.9992c0.4686,-0.9929 0.8875,-2.0008 1.4243,-2.9607c0.5714,-1.0216 1.3463,-1.9005 2.1783,-2.7145l1.8719,-1.5648c0.9745,-0.7126 1.9601,-1.4043 2.9807,-2.0502c0.9726,-0.6154 1.9661,-1.2206 3,-1.7291c1.6274,-0.8005 3.2898,-1.5103 5,-2.1158c1.9516,-0.6909 3.9486,-1.2624 6,-1.5648m22,25.6991l-7,0l0,24l42,0l6,0l2,-0.0008l1.995,-0.0185l1.946,-0.1288l0.911,-0.1698l0.83,-0.2855l0.715,-0.4244l0.575,-0.5756c0.556,-0.7015 0.749,-1.5946 0.88,-2.4552l0.129,-1.946l0.018,-1.9954l0.001,-5l0,-11l-6,0l0.585,-1.6713l0.057,-0.4877l0.198,-1.0015l0.126,-1.8642l0.034,-4.9753l-0.001,-4l-0.018,-1.9992l-0.129,-1.9815l-0.17,-0.9607l-0.285,-0.9105l-1,-1.5447l-0.715,-0.5756c-0.784,-0.5235 -1.776,-0.7756 -2.701,-0.8797c-1.653,-0.1857 -3.321,-0.1447 -4.981,-0.1481l-16,0l-8,0l-3,0l-1.999,0.0046l-1.982,0.054l-0.96,0.0895l-0.911,0.1698l-1.545,0.7099l-0.575,0.5756l-0.71,1.5447l-0.259,1.8712l-0.04,0.9853l-0.014,0.9962l-0.005,1.9992l0,4l0,10m15,-21l0,8l-1.239,-0.8418l-1.211,-0.7315l-0.772,-0.3673l-1.807,-0.4961l-0.943,-0.0216l-1.8,0.5301l-0.79,0.547l-1.2,1.5301l-0.348,0.909l-0.058,1.9267l0.815,1.8518l0.686,0.8017l0.819,0.6505l0.906,0.4599l1.922,0.25l1.86,-0.4792c1.084,-0.4559 2.103,-1.0003 3.16,-1.5193l0,7l-5.025,0l-2.97,-0.0193l-1.946,-0.1288l-0.911,-0.1698l-1.545,-0.7099l-0.575,-0.5756l-0.425,-0.7145l-0.285,-0.8302l-0.259,-1.8712l-0.054,-1.9815l-0.005,-2.9992l0.005,-2.9992l0.054,-1.9815l0.259,-1.8712l0.285,-0.8302l0.425,-0.7145l0.575,-0.5756l1.545,-0.7099l0.911,-0.1698l1.946,-0.1288l2.97,-0.0193l5.025,0m13,0l0,7l-1.671,-0.74l-1.489,-0.5077l-0.88,-0.1805l-1.906,-0.0324l-1.733,0.5038l-0.804,0.5224l-1.517,1.4344l-0.585,-1.0864l-0.057,-0.429l-0.198,-0.801l-0.126,-1.6975l-0.034,-3.9861l11,0m16,0l0,20l-14,0l0,-20l14,0m-10.682,6.0324l-1.286,1.2855l-0.413,0.8295l-0.257,0.9074l-0.105,0.9491l0.196,1.8881l0.294,0.8796l0.995,1.4823l0.692,0.5517l0.794,0.4081l0.877,0.2439l0.924,0.0856l0.942,-0.0856l1.801,-0.652l1.481,-1.24l0.549,-0.794l0.397,-0.8796l0.219,-0.9314l-0.13,-1.9058l-0.907,-1.7369l-0.703,-0.7137l-0.827,-0.5718l-1.866,-0.6558l-1.927,0l-1.74,0.6558m-22.318,-0.0324l1.018,1.625l0.144,0.375l0.543,1.375l0.295,1.625l-1.185,-1.0671l-0.22,-0.3912l-0.737,-1.3588l-0.101,-0.7246l-0.102,-0.3912l0.345,-1.0671m25,0l-0.65,1.6451l-0.64,1.3549l-0.715,1.3549l-0.995,1.6451l-0.472,-1.0818l0.031,-0.4105l-0.018,-0.7839l0.446,-1.6235l0.131,-0.4483l0.882,-1.652l2,0m-28,1l0.995,1.6667l0.219,0.4676l0.825,1.75l0.537,1.449l0.424,1.6667l-1.625,-0.1921l-0.375,-0.0872l-1.375,-0.2878l-1.625,-0.4329l0.057,-1.652c0.092,-0.699 0.198,-1.3929 0.393,-2.0718l0.386,-0.7839l0.147,-0.4105l1.017,-1.0818m14,0l-0.594,1.4938l-0.295,0.5062l-1.111,2l-0.482,-1.0401l0,-0.3187l0,-1.1188l0.482,-1.5224l2,0m3,0l0.899,1.6667l0.217,1.4352l-0.415,1.6049l-0.473,0.6944l-1.301,0.9946l-1.302,0.4445l-1.625,0.1597l0.428,-1.6667l0.564,-1.4352l0.864,-1.6018l0.902,-1.2114l1.242,-1.0849m14,0l0.495,2.1397l0.027,0.9622l-0.579,1.6049l-0.536,0.6944l-1.395,0.9946l-1.361,0.4445l-1.651,0.1597l0.537,-1.6667l0.233,-0.4676l0.415,-0.9814l0.851,-1.75l0.251,-0.4676l0.713,-1.6667l2,0m-21,5l1.517,1.7168l0.804,0.6428l1.733,0.6234l1.906,-0.0995l0.88,-0.2755l1.489,-0.6975l1.671,-0.9105l0,7l-11,0l0.034,-3.9861l0.126,-1.6975l0.198,-0.801l0.057,-0.429l0.585,-1.0864m44,9l0,3.1605l-0.005,1.8642c-0.031,1.6332 -0.003,3.3334 -0.595,4.8858l-0.959,1.804l-0.651,0.8611l-0.714,0.8488l-1.392,1.7454l-1.112,1.8696l-0.767,1.9645l-0.461,1.9961l-0.119,1l0,2l0.312,2l0.268,0.9992l0.768,1.9854l0.517,0.9722l1.329,1.8295c1.257,1.41 2.841,2.4888 4.585,3.2044l1.996,0.615l1,0.1798l1,0.1057l2,0.0494l1,-0.0533l1,-0.1165l1.999,-0.5131l1.986,-1l0.971,-0.6913l0.936,-0.7948l0.883,-0.8804l0.806,-0.9352l0.716,-0.9714l1.127,-1.9854l0.733,-1.9992l0.22,-1l0.12,-1l-0.059,-2l-0.396,-2l-0.695,-2l-1.055,-2c-0.627,-1.0458 -1.411,-1.9859 -2.083,-3l-0.65,-1l-0.959,-2c-0.567,-1.5982 -0.563,-3.3036 -0.595,-4.9753l-0.005,-1.8642l0,-3.1605l-2,0l0,4.0448l0.005,1.9598l0.054,1.9954l0.089,1l0.169,1l0.695,2c0.685,1.4554 1.735,2.6937 2.652,4l1.331,2l0.545,1l0.764,2l0.197,1l0.072,1l-0.269,2l-0.765,1.9961l-0.549,0.9885l-1.384,1.9066l-0.82,0.8804l-0.891,0.7948l-0.938,0.6913l-1.961,0.9992l-1.996,0.4993l-1,0.091l-1,0l-2,-0.2847l-1.996,-0.7415l-0.989,-0.5633l-1.906,-1.4861l-1.675,-1.8156l-0.692,-0.9714l-0.562,-0.9885l-0.731,-1.9961l-0.231,-2l0.054,-1l0.177,-1l0.296,-1l0.978,-2l0.652,-1c0.902,-1.3015 1.936,-2.5571 2.613,-4l0.695,-2l0.169,-1l0.089,-1l0.054,-1.9992l-0.029,-2.9422l-0.126,-1.7376l-0.198,-0.804l-0.057,-0.4306l-0.585,-1.0864m-63,2l0,7l2.159,-0.0008l1.881,-0.0185l0.965,-0.0378l1.848,-0.2361l1.537,-0.5756l0.615,-0.5625l0.995,-1.5687l-2.157,0.5216l-0.999,0.189c-0.895,0.117 -1.786,0.2057 -2.688,0.2493c-1.05,0.0507 -2.107,0.0313 -3.156,0.0401l0,-5l24,0l0,5c-1.062,0.0125 -2.102,0.0013 -3.16,0.0586l-0.885,0.0895l-1.96,0.4553l-0.995,0.4228l-0.995,0.5726l-1.96,1.5046l-1.886,1.7569l-2.159,2.1397l1.671,-0.6497l0.488,-0.3264l1.001,-0.5756l0.885,-0.6165c0.959,-0.6439 1.905,-1.3331 2.957,-1.8241l1.997,-0.7099l1.982,-0.3873l0.96,-0.2091l0.911,-0.3002l1.545,-1l0.575,-0.6944l0.71,-1.6049l0.171,-0.9622l0.147,-2.1397l4,0l0,20l-35,0l0,-20l4,0m50,0l0,20l-17,0l0,-20l17,0m-7,3l0,1l2,1l-0.427,1.6096l0.095,0.402l0.072,0.831l0.738,1.1528l1.014,0.6635l1.508,0.3411l-0.361,-1.1389l-0.306,-0.1944l-0.944,-0.5556l-1.389,-0.1111l2,-2l-1,-1.4583l-0.259,-0.3627l-0.741,-1.179l3,0l0,-2l-1.625,0.2948l-1.375,0.5432l-0.375,0.1443l-1.625,1.0177m-5,-1l-0.809,1.6698l-0.197,0.4845l-0.428,0.9815l-0.665,1.7284l-0.488,1.466l-0.413,1.6698l1.118,-0.6528l0.227,-0.3379l0.525,-0.5949c0.451,-0.7354 0.797,-1.534 1.159,-2.3141l0.185,-0.4491l0.786,-1.6512l0.535,1.625l0.544,1.375l0.144,0.375l0.777,1.625l0.471,-1.0849l-0.037,-0.4274l0.029,-0.784l-0.361,-1.6018c-0.331,-1.0486 -0.728,-2.0675 -1.102,-3.1019l-2,0m52.059,1.7863l-1.741,0.9598l-0.715,0.6883l-0.574,0.794l-0.692,1.8156l-0.13,1.9552l0.13,0.9823l0.271,0.9599l0.995,1.7407l1.545,1.2863l0.91,0.4128l0.957,0.2569l0.974,0.105l0.969,-0.0301l1.828,-0.4599l1.56,-0.9954l0.641,-0.6913l0.541,-0.7948l0.419,-0.8804l0.291,-0.9344l0.115,-1.9452l-0.575,-1.9028l-0.536,-0.8804l-0.68,-0.794l-0.791,-0.6883l-1.815,-0.9598l-0.971,-0.2439l-0.984,-0.0856l-1.942,0.3295m0.985,1.9259l1.852,-0.1304l0.876,0.2191l0.794,0.3974l1.236,1.2353l0.397,0.7909l0.255,1.7755l-0.526,1.7716l-0.547,0.7801l-0.702,0.662l-1.722,0.8156l-1.853,0l-0.876,-0.3171l-0.79,-0.4985l-0.676,-0.6628l-0.524,-0.7824l-0.486,-1.7932l0.08,-0.9321l0.305,-0.8981l0.51,-0.8241l0.686,-0.7022l1.711,-0.9066m-106.044,40.2878l6.0046,0l2.9946,-0.019l1.9807,-0.129l0.9581,-0.17l0.899,-0.284l1.469,-0.977l0.8,-1.409l0.101,-0.912l-0.207,-2.1l-7.0015,0l-2.9939,0.0193l-0.9853,0.0393l-0.9599,0.0895l-0.9074,0.1698l-0.8194,0.284l-1.2145,0.9771l-0.5108,1.409l0.0185,0.912l0.0038,0.449l0.3704,1.651m36,-6l-7.002,0l-2.993,0.0193l-0.986,0.0393l-1.87,0.2593l-0.826,0.2847l-0.7,0.4204l-0.871,1.236l-0.116,0.741l0.116,0.741l0.871,1.236l1.526,0.705l0.91,0.17l0.96,0.089l1.982,0.054c1.33,0.023 2.665,0.008 3.994,-0.054l0.985,-0.089l1.857,-0.454l1.469,-0.977l0.8,-1.409l0.101,-0.912l-0.207,-2.1m6.623,1.023l-0.871,1.236l-0.116,0.741l0.116,0.741l0.334,0.675l0.537,0.561l1.526,0.705l0.91,0.17l1.946,0.129l1.995,0.017c0.994,-0.004 1.988,0 2.981,-0.057l1.87,-0.259l1.526,-0.705l0.871,-1.236l0.116,-0.741l-0.116,-0.741l-0.334,-0.675l-0.537,-0.561l-1.526,-0.7051l-0.91,-0.1698l-1.946,-0.1288l-1.995,-0.0178c-0.994,0.0045 -1.988,0.0007 -2.981,0.0571l-1.87,0.2593l-1.526,0.7051m21,0l-0.871,1.236l-0.116,0.741l0.116,0.741l0.334,0.675l0.537,0.561l1.526,0.705l0.91,0.17l1.946,0.129l1.995,0.017c0.994,-0.004 1.988,0 2.981,-0.057l1.87,-0.259l1.526,-0.705l0.871,-1.236l0.116,-0.741l-0.116,-0.741l-0.334,-0.675l-0.537,-0.561l-1.526,-0.7051l-0.91,-0.1698l-1.946,-0.1288l-1.995,-0.0178c-0.994,0.0045 -1.988,0.0007 -2.981,0.0571l-1.87,0.2593l-1.526,0.7051m-49.623,0.977l0,2l-13,0l0,-2l13,0m21,0l0,2l-13,0l0,-2l13,0m21,0l0,2l-13,0l0,-2l13,0m21,0l0,2l-13,0l0,-2l13,0m-134,2l1.6713,0.585l1.4892,0.255c1.2771,0.125 2.5589,0.15 3.841,0.157l3.9985,0.004l3,0.038c1.0056,0.044 2.0009,0.123 3,0.246l4,0.545c1.6638,0.159 3.3306,0.159 5,0.169l4,0.001l5,0l3,0.015l1.9954,0.094l0.9853,0.119l0.9607,0.206l1.7407,0.745l0.7145,0.563l1,1.486l0.2855,0.881l0.1698,0.935l0.1288,1.96l0.0185,1.996l0.0008,2l0,8l0,8l-0.0039,5c-0.0139,0.998 -0.0348,1.988 -0.1049,2.985l-0.1196,0.971c-0.1647,0.915 -0.4162,1.834 -0.9506,2.61l-0.5633,0.692l-1.4861,1l-0.8804,0.308l-1.9066,0.325l-0.9885,0.065l-1.9961,0.04l-5,0.004l-7,0c-1.6655,0.003 -3.3372,-0.024 -5,0.09c-2.3476,0.16 -4.6525,0.66 -7,0.82c-1.9953,0.137 -4.0017,0.08 -6,0.094c-0.9908,0.007 -1.9867,0.011 -2.9753,0.086l-1.8642,0.199l-1.0015,0.189l-0.4877,0.09l-1.6713,0.432l0,-30l0.0008,-7.999l0.0332,-2.942l0.1265,-1.738l0.1975,-0.804l0.0571,-0.431l0.5849,-1.086m193,0l0,45c-1.347,-0.25 -2.689,-0.512 -4.045,-0.714l-1.96,-0.196c-1.328,-0.093 -2.664,-0.086 -3.995,-0.089l-5,-0.002l-3,-0.038c-1.006,-0.044 -2.001,-0.123 -3,-0.246l-4,-0.545c-1.331,-0.127 -2.664,-0.154 -4,-0.166l-4,-0.004l-5,-0.001l-1.999,-0.018l-0.996,-0.04l-1.946,-0.259l-0.911,-0.285l-0.83,-0.425l-0.715,-0.575l-0.575,-0.715c-0.536,-0.803 -0.743,-1.764 -0.88,-2.701l-0.129,-1.982l-0.018,-1.999l-0.001,-4l0,-9l0,-8l0.005,-3l0.014,-0.999l0.129,-1.982l0.17,-0.96l0.285,-0.911l1,-1.545l0.715,-0.575l1.741,-0.71l0.96,-0.17l0.986,-0.089l1.995,-0.054l3,-0.005l6,0l4,-0.004c1.336,-0.012 2.669,-0.039 4,-0.166l3,-0.406c0.999,-0.139 1.993,-0.266 3,-0.334c0.998,-0.069 2,-0.077 3,-0.086l4,-0.008c0.998,-0.006 1.999,-0.016 2.995,-0.086c0.955,-0.066 1.899,-0.18 2.845,-0.329l3.16,-0.581m-187,4l0,16l5,0l0,-6.005l-0.0046,-2.994l-0.054,-1.982l-0.0895,-0.96l-0.1683,-0.911l-0.6867,-1.545l-0.5555,-0.575l-1.4298,-0.713l-0.402,-0.155l-1.6096,-0.16m19,0l0,16l1.6096,-0.16l0.402,-0.155l0.831,-0.289l1.1543,-0.999c0.7158,-0.962 0.8788,-2.258 0.9445,-3.416c0.0562,-0.993 0.0571,-1.987 0.0571,-2.981c0,-0.994 -0.0009,-1.988 -0.0571,-2.981c-0.0657,-1.158 -0.2287,-2.454 -0.9445,-3.416l-1.1543,-0.999l-0.831,-0.289l-0.402,-0.155l-1.6096,-0.16m10.5841,1.086c-0.9441,0.663 -1.3097,1.885 -1.436,2.973c-0.1899,1.636 -0.1539,3.296 -0.1435,4.94l0.054,1.982l0.0895,0.96l0.1698,0.91l0.7052,1.526l0.561,0.537l0.6752,0.334l0.7407,0.116l1.4159,-0.45c0.9441,-0.663 1.3097,-1.885 1.436,-2.973c0.1899,-1.636 0.1539,-3.296 0.1435,-4.94l-0.054,-1.982l-0.0895,-0.96l-0.1698,-0.91l-0.7052,-1.526l-0.561,-0.537l-0.6752,-0.334l-0.7407,-0.116l-1.4159,0.45m116.4159,14.914l5,0l0,-16l-1.61,0.16l-0.402,0.155l-1.429,0.713l-0.556,0.575l-0.687,1.545l-0.168,0.911l-0.089,0.96l-0.054,1.982l-0.005,2.994l0,6.005m10,-16l-0.432,1.671l-0.279,1.489c-0.126,0.948 -0.206,1.89 -0.249,2.845l-0.035,1.995l0.014,1.995l0.129,1.946l0.17,0.91l0.285,0.826l0.981,1.237l0.675,0.334l0.741,0.116l0.741,-0.116l1.236,-0.871l0.705,-1.526l0.17,-0.91l0.089,-0.96l0.054,-1.982c0.023,-1.326 0.008,-2.655 -0.054,-3.98l-0.089,-0.96l-0.168,-0.911l-0.687,-1.545l-1.154,-0.999l-0.831,-0.289l-2.012,-0.315m9,16l5,0l0,-16l-1.61,0.16l-0.402,0.155l-1.429,0.713l-0.556,0.575l-0.687,1.545l-0.168,0.911l-0.089,0.96l-0.054,1.982l-0.005,2.994l0,6.005m10.584,-14.914c-0.944,0.663 -1.31,1.885 -1.436,2.973c-0.19,1.636 -0.154,3.296 -0.143,4.94l0.054,1.982l0.089,0.96l0.17,0.91l0.705,1.526l0.561,0.537l0.675,0.334l0.741,0.116l1.416,-0.45c0.944,-0.663 1.31,-1.885 1.436,-2.973c0.19,-1.636 0.154,-3.296 0.143,-4.94l-0.054,-1.982l-0.089,-0.96l-0.17,-0.91l-0.705,-1.526l-0.561,-0.537l-0.675,-0.334l-0.741,-0.116l-1.416,0.45m-172.584,-0.086l0,14l-1.017,-1.086l-0.1466,-0.431l-0.3866,-0.804l-0.3256,-1.738c-0.0828,-0.98 -0.1149,-1.958 -0.1149,-2.941c0,-0.983 0.0321,-1.961 0.1149,-2.941l0.3256,-1.738l0.3866,-0.804l0.1466,-0.431l1.017,-1.086m19,0l0,14l-1.017,-1.086l-0.1466,-0.431l-0.3866,-0.804l-0.3256,-1.738c-0.0828,-0.98 -0.1149,-1.958 -0.1149,-2.941c0,-0.983 0.0321,-1.961 0.1149,-2.941l0.3256,-1.738l0.3866,-0.804l0.1466,-0.431l1.017,-1.086m65,6l0.272,-1.651l-0.065,-0.449l-0.101,-0.912l-0.8,-1.409c-0.842,-0.909 -2.132,-1.297 -3.326,-1.431c-0.992,-0.111 -1.983,-0.134 -2.98,-0.143c-1.327,-0.011 -2.66,-0.005 -3.981,0.143l-1.866,0.455l-0.816,0.42l-1.161,1.236l-0.255,0.741l0,0.741l0.255,0.675l1.161,0.981l0.816,0.285l0.906,0.17l1.946,0.129l0.996,0.014l2.994,0.005l6.005,0m62,-6l0.585,1.671l0.057,0.488l0.198,1.001c0.132,1.275 0.154,2.56 0.154,3.84c0,1.28 -0.022,2.565 -0.154,3.84l-0.198,1.001l-0.057,0.488l-0.585,1.671l-0.585,-1.086l-0.057,-0.431l-0.198,-0.804l-0.126,-1.738l-0.032,-2.941l0.032,-2.941l0.126,-1.738l0.198,-0.804l0.057,-0.431l0.585,-1.086m19,0l0.585,1.671l0.057,0.488l0.198,1.001c0.132,1.275 0.154,2.56 0.154,3.84c0,1.28 -0.022,2.565 -0.154,3.84l-0.198,1.001l-0.057,0.488l-0.585,1.671l-0.585,-1.086l-0.057,-0.431l-0.198,-0.804l-0.126,-1.738l-0.032,-2.941l0.032,-2.941l0.126,-1.738l0.198,-0.804l0.057,-0.431l0.585,-1.086m-136,1l0,12l-2,0l0,-12l2,0m19.662,1.008l-0.4861,0.537l-0.2546,1.285l0.2546,0.625l0.4861,0.537l1.4908,0.691l0.9066,0.169l0.9599,0.089l1.9815,0.054l1.9992,0.004c0.9939,-0.005 1.9879,-0.001 2.9807,-0.058l1.8663,-0.258l0.816,-0.282l0.675,-0.409l0.486,-0.537l0.255,-1.285l-0.255,-0.625l-0.486,-0.537l-1.491,-0.691l-0.906,-0.169l-0.9603,-0.089l-1.9815,-0.054l-1.9992,-0.004c-0.9939,0.005 -1.9879,0.001 -2.9807,0.058l-1.8665,0.258l-0.8156,0.282l-0.6752,0.409m40.338,-1.008l0.16,1.61l0.155,0.402l0.713,1.429l0.575,0.556l1.545,0.687l0.911,0.168l0.96,0.089l1.982,0.054l2.994,0.005l6.005,0l0.542,-2l0.143,-0.506l0.315,-1.494l-1.671,-0.585l-0.488,-0.057l-1.001,-0.198l-1.865,-0.126l-3.975,-0.034l-8,0m21,0l0.16,1.61l0.155,0.402l0.289,0.831l0.999,1.154c0.962,0.716 2.258,0.879 3.416,0.944c0.993,0.057 1.987,0.057 2.981,0.057c0.994,0 1.988,0 2.981,-0.057c1.158,-0.065 2.454,-0.228 3.416,-0.944l0.999,-1.154l0.289,-0.831l0.155,-0.402l0.16,-1.61l-16,0m46,0l0,13l-2,0l0,-13l2,0m19,0l0,13l-2,0l0,-13l2,0m-113,1l0,2l-13,0l0,-2l13,0m21,0l0,2l-13,0l0,-2l13,0m21,1l-1.086,0.585l-0.431,0.057l-0.804,0.198c-1.222,0.142 -2.454,0.142 -3.682,0.157l-6.997,0.003l0,-2l5.025,0.001l2.95,0.033l1.865,0.126l1.001,0.198l0.488,0.057l1.671,0.585m21,0l-1.086,0.585l-0.431,0.057l-0.804,0.198l-1.738,0.126l-2.94,0.033l-7.001,0.001l1.086,-1.017l0.431,-0.147l0.804,-0.386l1.738,-0.326l1.946,-0.105c1.612,-0.054 3.228,0.011 4.835,0.141l1.001,0.198l0.488,0.057l1.671,0.585m-76.338,8.008l-0.4861,0.537l-0.2546,1.285l0.2546,0.625l0.4861,0.537l1.4908,0.691l0.9066,0.169l0.9599,0.089l1.9815,0.054l1.9992,0.004c0.994,-0.005 1.9878,-0.001 2.9807,-0.058l1.8663,-0.258l0.816,-0.282l0.675,-0.409l0.486,-0.537l0.255,-1.285l-0.255,-0.625l-0.486,-0.537l-1.491,-0.691l-0.906,-0.169l-0.9603,-0.089l-1.9815,-0.054l-1.9992,-0.004c-0.9939,0.005 -1.9879,0.001 -2.9807,0.058l-1.8665,0.258l-0.8156,0.282l-0.6752,0.409m19.338,3.992l8,0l3.975,-0.034l1.865,-0.126l1.001,-0.198l0.488,-0.057l1.671,-0.585l-0.995,-1.844l-0.615,-0.712l-1.539,-0.865l-1.87,-0.432l-0.986,-0.088c-1.329,-0.061 -2.663,-0.077 -3.994,-0.054l-1.982,0.054l-0.96,0.089l-0.911,0.168l-1.545,0.687l-0.575,0.556l-0.713,1.429l-0.155,0.402l-0.16,1.61m21,0l8,0l3.975,-0.034l1.865,-0.126l1.001,-0.198l0.488,-0.057l1.671,-0.585l-0.995,-1.844l-0.615,-0.712l-1.539,-0.865l-1.87,-0.432l-0.986,-0.088c-1.329,-0.061 -2.664,-0.077 -3.994,-0.054l-1.982,0.054l-0.96,0.089l-0.911,0.168l-1.545,0.687l-0.575,0.556l-0.713,1.429l-0.155,0.402l-0.16,1.61m21,0l16,0l-0.16,-1.61l-0.155,-0.402l-0.289,-0.831l-0.999,-1.154c-0.962,-0.716 -2.258,-0.879 -3.416,-0.944c-0.993,-0.057 -1.987,-0.057 -2.981,-0.057c-0.994,0 -1.988,0 -2.981,0.057c-1.158,0.065 -2.454,0.228 -3.416,0.944l-0.999,1.154l-0.289,0.831l-0.155,0.402l-0.16,1.61m-48,-3l0,2l-13,0l0,-2l13,0m21,0l0,2l-13,0l0,-2l13,0m21,0l-1.086,1.017l-0.431,0.147l-0.804,0.386l-1.738,0.326c-0.98,0.083 -1.954,0.103 -2.937,0.119l-1.959,0.005l-4.045,0l0,-2l13,0m21,0l0,2l-13,0l0,-2l13,0m-127,7l-0.5849,1.671l-0.0571,0.488l-0.1975,1.001l-0.1265,1.865l-0.034,3.975l0,8l1.6096,-0.16l0.402,-0.155l1.4298,-0.713l0.5555,-0.575l0.6867,-1.545l0.1683,-0.911l0.0895,-0.96l0.054,-1.982l0.0046,-2.994l0,-6.005l-2,-0.542l-0.5062,-0.143l-1.4938,-0.315m20,0l-1.017,1.239l-0.5332,1.211l-0.3256,1.665l-0.1065,1.901l-0.0177,2.984l0,8l1.6096,-0.16l0.402,-0.155l1.4298,-0.713l0.5555,-0.575l0.6867,-1.545l0.1683,-0.911l0.0895,-0.96l0.054,-1.982c0.0224,-1.33 0.0066,-2.665 -0.0525,-3.994l-0.2361,-1.946l-0.5756,-1.738l-0.8025,-1.235l-1.3287,-1.086m45,6l0.542,-2l0.143,-0.506l0.315,-1.494l-1.671,-0.897l-1.489,-0.524l-1.8647,-0.376l-1.9768,-0.161l-1.9985,-0.034l-1.9954,0.051l-1.9452,0.259l-1.7222,0.705l-0.6752,0.561l-0.4861,0.675l-0.2546,1.482l0.2546,0.675l1.1613,0.981l0.8156,0.285l1.8665,0.259l0.9853,0.04l2.9939,0.019l7.0015,0m5,-5l0.315,2.012l0.289,0.831l0.999,1.154l1.545,0.687l0.911,0.168l0.96,0.089c1.659,0.058 3.321,0.085 4.98,0.054l1.982,-0.054l0.96,-0.089l0.906,-0.17l1.491,-0.705l0.486,-0.561l0.255,-0.675l0,-0.741l-0.255,-0.741l-1.161,-1.236l-0.816,-0.42l-0.906,-0.285l-1.946,-0.259l-1.995,-0.054c-0.998,-0.001 -1.998,-0.01 -2.995,0.035c-0.955,0.043 -1.897,0.123 -2.845,0.249l-1.489,0.279l-1.671,0.432m21,0l0.315,2.012l0.289,0.831l0.999,1.154l1.545,0.687l0.911,0.168l0.96,0.089c1.325,0.062 2.655,0.077 3.981,0.054l1.995,-0.054l0.985,-0.089l0.957,-0.17c0.847,-0.219 1.741,-0.561 2.311,-1.266l0.406,-0.675l0.139,-0.741l-0.139,-0.741l-1.031,-1.236l-1.686,-0.705l-0.957,-0.17l-1.981,-0.129l-1.999,-0.014l-1.995,0.035c-0.955,0.043 -1.897,0.123 -2.845,0.249l-1.489,0.279l-1.671,0.432m21,0l0.16,1.61l0.155,0.402l0.713,1.429l0.575,0.556l1.545,0.687l0.911,0.168l0.96,0.089l1.982,0.054c1.33,0.023 2.665,0.007 3.994,-0.054l0.986,-0.088l1.87,-0.432l1.539,-0.865l0.615,-0.712l0.995,-1.844l-1.671,-0.897l-1.489,-0.524l-1.865,-0.376c-1.323,-0.147 -2.644,-0.193 -3.975,-0.195c-0.993,-0.002 -1.983,0.029 -2.975,0.082l-1.865,0.199l-1.001,0.189l-2.159,0.522m35,-1l-1.017,1.671l-0.533,1.489l-0.326,1.865l-0.07,0.98l-0.049,1.995l0,1.999l0.054,1.982l0.089,0.96l0.451,1.722l0.946,1.161l0.625,0.255l0.66,0l0.625,-0.255l0.537,-0.486l0.691,-1.491l0.169,-0.906l0.089,-0.96l0.054,-1.982l0.004,-1.998l-0.004,-0.997l-0.052,-1.96l-0.236,-1.816l-0.576,-1.488l-0.562,-0.628l-1.569,-1.112m17,1l0,6.005l0.005,2.994l0.054,1.982l0.089,0.96l0.168,0.911l0.687,1.545l0.556,0.575l1.429,0.713l0.402,0.155l1.61,0.16l0,-16l-1.625,-0.241l-1.375,-0.001l-0.375,0.001l-1.625,0.241m11.259,0.346l-1.236,1.031l-0.42,0.79l-0.285,0.896l-0.17,0.957l-0.089,0.985l-0.054,1.995l0,1.999l0.054,1.982l0.089,0.96l0.17,0.91l0.705,1.526l0.561,0.537l0.675,0.334l1.482,0l0.675,-0.334l0.561,-0.537l0.42,-0.7l0.455,-1.736l0.129,-1.946l0.014,-2.995l-0.054,-1.995l-0.089,-0.985l-0.17,-0.957l-0.705,-1.686l-0.561,-0.625l-0.675,-0.406l-0.741,-0.139l-0.741,0.139m-146.6749,0.74c-0.9442,0.663 -1.3096,1.885 -1.436,2.973c-0.1899,1.636 -0.1539,3.296 -0.1435,4.94l0.054,1.982l0.0895,0.96l0.1698,0.91l0.7052,1.526l0.561,0.537l0.6752,0.334l0.7407,0.116l1.4159,-0.45c0.9441,-0.663 1.3096,-1.885 1.436,-2.973c0.1899,-1.636 0.1539,-3.296 0.1435,-4.94l-0.054,-1.982l-0.0895,-0.96l-0.1698,-0.91l-0.7052,-1.526l-0.561,-0.537l-0.6752,-0.334l-0.7407,-0.116l-1.4159,0.45m126.9999,0c-0.944,0.663 -1.31,1.885 -1.436,2.973c-0.19,1.636 -0.154,3.296 -0.143,4.94l0.054,1.982l0.089,0.96l0.17,0.91l0.705,1.526l0.561,0.537l0.675,0.334l0.741,0.116l1.416,-0.45c0.944,-0.663 1.31,-1.885 1.436,-2.973c0.19,-1.636 0.154,-3.296 0.143,-4.94l-0.054,-1.982l-0.089,-0.96l-0.17,-0.91l-0.705,-1.526l-0.561,-0.537l-0.675,-0.334l-0.741,-0.116l-1.416,0.45m-153.584,-0.086l0,14l-1.017,-1.086l-0.1466,-0.431l-0.3866,-0.804l-0.3256,-1.738c-0.0828,-0.98 -0.1149,-1.958 -0.1149,-2.941c0,-0.983 0.0321,-1.961 0.1149,-2.941l0.3256,-1.738l0.3866,-0.804l0.1466,-0.431l1.017,-1.086m19,0l0,14l-1.017,-1.086l-0.1466,-0.431l-0.3866,-0.804l-0.3256,-1.738c-0.0828,-0.98 -0.1149,-1.958 -0.1149,-2.941c0,-0.983 0.0321,-1.961 0.1149,-2.941l0.3256,-1.738l0.3866,-0.804l0.1466,-0.431l1.017,-1.086m43,0l0,2l-13,0l0,-2l13,0m21,0l0,2l-13,0l0,-2l13,0m21,0l0,2l-13,0l0,-2l13,0m21,1l-1.086,0.585l-0.431,0.057l-0.804,0.198c-1.222,0.142 -2.454,0.142 -3.682,0.157l-6.997,0.003l0,-2l5.025,0.001l2.95,0.033l1.865,0.126l1.001,0.198l0.488,0.057l1.671,0.585m21,-1l0.585,1.671l0.057,0.488l0.198,1.001c0.132,1.275 0.154,2.56 0.154,3.84c0,1.28 -0.022,2.565 -0.154,3.84l-0.198,1.001l-0.057,0.488l-0.585,1.671l-0.585,-1.086l-0.057,-0.431l-0.198,-0.804l-0.126,-1.738l-0.032,-2.941l0.032,-2.941l0.126,-1.738l0.198,-0.804l0.057,-0.431l0.585,-1.086m10,0l0,14l-1.017,-1.086l-0.147,-0.431l-0.386,-0.804l-0.326,-1.738c-0.083,-0.981 -0.103,-1.957 -0.119,-2.94l-0.005,-2.956l0,-4.045l2,0m9,0l0.585,1.671l0.057,0.488l0.198,1.001c0.132,1.275 0.154,2.56 0.154,3.84c0,1.28 -0.022,2.565 -0.154,3.84l-0.198,1.001l-0.057,0.488l-0.585,1.671l-0.585,-1.086l-0.057,-0.431l-0.198,-0.804l-0.13,-1.738l-0.114,-2.941l-0.216,-2.941l0.036,-1.738l0.268,-0.804l0.077,-0.431l0.919,-1.086m10,0l0,14l-2,0l0,-14l2,0m-146,1l-0.0008,5.025l-0.0332,2.95l-0.1265,1.865l-0.1975,1.001l-0.0571,0.488l-0.5849,1.671l-0.5849,-1.086l-0.0571,-0.431l-0.1975,-0.804c-0.1423,-1.222 -0.1427,-2.454 -0.1574,-3.682l-0.0031,-6.997l2,0m35,11l-0.315,-1.494l-0.143,-0.506l-0.542,-2l-7.0015,0l-2.9939,0.019l-0.9853,0.04l-1.8665,0.258l-0.8156,0.282l-1.1613,0.946l-0.2546,0.625l0.2546,1.285l0.4861,0.537l0.6752,0.409l1.7222,0.451l1.9452,0.129l1.9954,0.018l3.9753,-0.033l1.8647,-0.126l1.001,-0.198l0.488,-0.057l1.671,-0.585m4,1l8,0l3.975,-0.034l1.865,-0.126l1.001,-0.198l0.488,-0.057l1.671,-0.585l-0.315,-1.494l-0.143,-0.506l-0.542,-2l-6.005,0l-2.994,0.005l-1.982,0.054l-0.96,0.089l-0.911,0.168l-1.545,0.687l-0.575,0.556l-0.713,1.429l-0.155,0.402l-0.16,1.61m21,0l16,0l0,-5l-6.005,0l-2.994,0.005l-1.982,0.054l-0.96,0.089l-0.911,0.168l-1.545,0.687l-0.575,0.556l-0.713,1.429l-0.155,0.402l-0.16,1.61m21,0l16,0l-0.16,-1.61l-0.155,-0.402l-0.289,-0.831l-0.999,-1.154c-0.962,-0.716 -2.258,-0.879 -3.416,-0.944c-0.993,-0.057 -1.987,-0.057 -2.981,-0.057c-0.994,0 -1.988,0 -2.981,0.057c-1.158,0.065 -2.454,0.228 -3.416,0.944l-0.999,1.154l-0.289,0.831l-0.155,0.402l-0.16,1.61m-48,-3l0,2l-13,0l0,-2l13,0m21,0l0,2l-13,0l0,-2l13,0m21,0l0,2l-13,0l0,-2l13,0m21,0l-1.086,1.017l-0.431,0.147l-0.804,0.386l-1.738,0.326l-1.946,0.105c-1.612,0.054 -3.227,-0.011 -4.835,-0.141l-1.001,-0.198l-0.488,-0.057l-1.671,-0.585l1.086,-0.585l0.431,-0.057l0.804,-0.198l1.738,-0.126l2.94,-0.033l7.001,-0.001m-78,8l0.1597,1.61l0.1551,0.402l0.713,1.429l0.5756,0.556l1.5447,0.687l0.9105,0.168l0.9607,0.089l1.9815,0.054c1.3307,0.023 2.6644,0.002 3.9946,-0.035l0.9799,-0.05l1.8647,-0.199l1.001,-0.189l2.159,-0.522l-0.59,-1.844l-0.439,-0.712l-1.289,-0.865l-1.741,-0.432l-0.9603,-0.088l-1.9815,-0.054l-3.9946,-0.005l-6.0046,0m21,0l0.16,1.61l0.155,0.402l0.713,1.429l0.575,0.556l1.545,0.687l0.911,0.168l0.96,0.089l1.982,0.054c1.33,0.023 2.665,0.007 3.994,-0.054l0.986,-0.088l1.87,-0.432l1.539,-0.865l0.615,-0.712l0.995,-1.844l-1.671,-0.585l-0.488,-0.057l-1.001,-0.198l-1.865,-0.126l-3.975,-0.034l-8,0m21,0l0.16,1.61l0.155,0.402l0.713,1.429l0.575,0.556l1.545,0.687l0.911,0.168l0.96,0.089l1.982,0.054c1.33,0.023 2.665,0.007 3.994,-0.054l0.986,-0.088l1.87,-0.432l1.539,-0.865l0.615,-0.712l0.995,-1.844l-1.671,-0.585l-0.488,-0.057l-1.001,-0.198l-1.865,-0.126l-3.975,-0.034l-8,0m21,0l0.16,1.61l0.155,0.402l0.289,0.831l0.999,1.154c0.962,0.716 2.258,0.879 3.416,0.944c0.993,0.057 1.987,0.057 2.981,0.057c0.994,0 1.988,0 2.981,-0.057c1.158,-0.065 2.454,-0.228 3.416,-0.944l0.999,-1.154l0.289,-0.831l0.155,-0.402l0.16,-1.61l-16,0m-48,1l0,2l-13,0l0,-2l13,0m21,0l0,2l-13,0l0,-2l13,0m21,0l0,2l-13,0l0,-2l13,0m21,0l0,2l-13,0l0,-2l13,0m-85,17l0,11l0.0008,5l0.0185,1.995l0.1288,1.946l0.4553,1.741l0.4244,0.715l0.5756,0.575c0.7015,0.556 1.5947,0.749 2.4552,0.88l1.946,0.129l1.9954,0.018l4,0.001l9,0l52,0l9,0l5,-0.001l1.995,-0.018l1.946,-0.129c0.861,-0.131 1.754,-0.324 2.456,-0.88l0.575,-0.575l0.425,-0.715l0.455,-1.741l0.129,-1.946l0.018,-1.995l0.001,-5l0,-11l-95,0m18,1l0,21l-16,0l0,-21l16,0m57,21l-18,0l0.432,-1.671l0.09,-0.488l0.3,-1.886l0.138,-1.958l0.039,-2.952l0.001,-4.045l-2,0l0,13l-17,0l0,-13l-2,0l0,13l-17,0l0,-21l40,0l6,0l2.995,0.019l0.986,0.04l1.871,0.259l0.83,0.285l0.715,0.425l0.575,0.575c0.556,0.702 0.749,1.595 0.88,2.456l0.129,1.946l0.018,1.995l0.001,4l0,9m18,-21l0,21l-17,0l0,-9l0,-3l0.005,-1.999l0.014,-0.996l0.04,-0.986l0.259,-1.871l0.71,-1.545l0.575,-0.575l1.545,-0.71l0.911,-0.17l0.96,-0.089l1.982,-0.054l3.994,-0.005l6.005,0m-86,9l0,9l0.5849,-1.082l0.0571,-0.41l0.1975,-0.784c0.0863,-0.686 0.1234,-1.381 0.1458,-2.072l0.0147,-1.652l1.3164,1.651l1.0694,1.361l1.2284,1.402l0.7253,0.595l0.3441,0.338l1.3164,0.653l0,-9l-0.5849,1.082l-0.0571,0.41l-0.1975,0.784c-0.0863,0.686 -0.1234,1.381 -0.1458,2.072l-0.0147,1.652l-1.3164,-1.651l-1.0694,-1.361l-1.2284,-1.402l-0.7253,-0.595l-0.3441,-0.338l-1.3164,-0.653m19,0l0,9l0.585,-1.082l0.057,-0.41l0.198,-0.784c0.086,-0.686 0.123,-1.381 0.145,-2.072l0.015,-1.652l1.316,1.651l1.07,1.361l1.228,1.402l0.726,0.595l0.344,0.338l1.316,0.653l0,-9l-0.585,1.082l-0.057,0.41l-0.198,0.784c-0.086,0.686 -0.123,1.381 -0.145,2.072l-0.015,1.652l-1.196,-1.651l-1.06,-1.361l-1.279,-1.402l-0.756,-0.595l-0.366,-0.338l-1.343,-0.653m37,0l0,9l6,0l-1.04,-0.585l-0.319,-0.056l-1.119,-0.256l-1.522,-0.103l0,-8l-2,0m19,0l0,9l6,0l-1.06,-0.585l-0.412,-0.057l-0.688,-0.198l-1.23,-0.125l-1.61,-0.035l-0.034,-3.986l-0.126,-1.698l-0.198,-0.801l-0.057,-0.429l-0.585,-1.086m-84.3966,16.028l-0.5756,0.575l-0.4244,0.715l-0.2855,0.83l-0.1698,0.911l-0.1288,1.946l-0.0185,1.995l-0.0008,4l0.0008,3l0.0185,1.995l0.1288,1.946l0.1698,0.911l0.2855,0.83l0.4244,0.715l0.5756,0.575l1.5447,0.71l1.8712,0.259c0.9927,0.057 1.9869,0.054 2.9807,0.058l3,0.001l22,0l3,-0.001c0.994,-0.004 1.988,-0.001 2.981,-0.058l1.871,-0.259l1.545,-0.71l0.575,-0.575l0.425,-0.715l0.285,-0.83l0.17,-0.911l0.129,-1.946l0.018,-1.995l0.001,-3l-0.001,-4l-0.018,-1.995l-0.129,-1.946l-0.17,-0.911l-0.285,-0.83l-0.425,-0.715l-0.575,-0.575l-1.545,-0.71l-1.871,-0.259c-0.993,-0.057 -1.987,-0.054 -2.981,-0.058l-3,-0.001l-22,0l-3,0.001c-0.9938,0.004 -1.988,0.001 -2.9807,0.058l-1.8712,0.259l-1.5447,0.71m56.9996,0l-0.575,0.575l-0.425,0.715l-0.285,0.83l-0.17,0.911l-0.129,1.946l-0.018,1.995l-0.001,4l0.005,3l0.054,1.995l0.259,1.946l0.285,0.911l0.425,0.83l0.575,0.715l0.715,0.575l0.83,0.425l0.911,0.285l1.946,0.259c0.997,0.056 1.996,0.054 2.995,0.058l3,0.001l21,0l3,-0.001c0.994,-0.004 1.988,-0.001 2.981,-0.058l1.871,-0.259l1.545,-0.71l0.575,-0.575l0.425,-0.715l0.285,-0.83l0.17,-0.911l0.129,-1.946l0.018,-1.995l0.001,-3l-0.001,-4l-0.018,-1.995l-0.129,-1.946l-0.17,-0.911l-0.285,-0.83l-0.425,-0.715l-0.575,-0.575l-1.545,-0.71l-1.871,-0.259c-0.993,-0.057 -1.987,-0.054 -2.981,-0.058l-3,-0.001l-22,0l-3,0.001c-0.994,0.004 -1.988,0.001 -2.981,0.058l-1.871,0.259l-1.545,0.71m-37.603,-0.028l0,20l-19,0l0,-20l19,0m2,20l0,-20l8,0l3,0l1.999,0.005l1.982,0.054l0.96,0.089l0.911,0.17l1.545,0.71l0.575,0.575l0.425,0.715l0.455,1.741c0.19,1.638 0.145,3.295 0.148,4.941l-0.001,3c-0.004,0.994 -0.001,1.988 -0.058,2.981l-0.259,1.871l-0.71,1.545l-0.575,0.575l-1.545,0.71l-1.871,0.259l-0.986,0.04l-0.996,0.014l-1.999,0.005l-3,0l-8,0m56,-20l0,20l-20,0l0,-20l20,0m1,20l0,-20l8,0l3,0l1.999,0.005l0.996,0.014l0.986,0.04l1.871,0.259l1.545,0.71l0.575,0.575l0.71,1.545l0.259,1.871c0.057,0.993 0.054,1.987 0.058,2.981l0.001,3c-0.003,1.646 0.042,3.303 -0.148,4.941l-0.455,1.741l-0.425,0.715l-0.575,0.575l-1.545,0.71l-0.911,0.17l-0.96,0.089l-1.982,0.054l-1.999,0.005l-3,0l-8,0m-70.8912,-15.971l-1.6744,1.289l-0.6883,0.83l-0.5517,0.911l-0.4089,0.96l-0.2469,0.985l-0.0355,1.981l0.5216,1.91l0.4359,0.891l0.5494,0.82l0.6428,0.74l1.5609,1.183l1.8295,0.724l1.9568,0.189l0.9853,-0.119l1.9059,-0.656l1.6752,-1.182l0.6913,-0.764l0.5625,-0.854l0.7307,-1.885l0.2315,-1.968l-0.0548,-0.974l-0.1767,-0.946l-0.297,-0.905l-0.9962,-1.616l-1.4861,-1.255l-0.8804,-0.459l-0.9352,-0.34l-0.9714,-0.221l-1.9815,-0.095l-0.9877,0.133l-1.9066,0.693m19.0002,0l-1.675,1.289l-0.688,0.83l-0.552,0.911l-0.409,0.96l-0.246,0.985l-0.036,1.981l0.522,1.91l0.436,0.891l0.549,0.82l0.643,0.74l1.561,1.183l1.829,0.724l1.957,0.189l0.985,-0.119l1.906,-0.656l1.675,-1.182l0.692,-0.764l0.562,-0.854l0.731,-1.886l0.231,-1.978l-0.054,-0.988l-0.177,-0.971l-0.297,-0.935l-0.996,-1.675l-1.486,-1.255l-0.881,-0.436l-0.935,-0.305l-0.971,-0.19l-1.982,-0.056l-0.988,0.141l-1.906,0.696m38,0l-1.675,1.289l-0.688,0.83l-0.552,0.911l-0.409,0.96l-0.246,0.985l-0.036,1.981l0.522,1.91l0.436,0.891l0.549,0.82l0.643,0.74l1.561,1.183l1.829,0.724l1.957,0.189l0.985,-0.119l1.906,-0.656l1.675,-1.182l0.692,-0.764l0.562,-0.854l0.731,-1.885l0.231,-1.968l-0.054,-0.974l-0.177,-0.946l-0.297,-0.905l-0.996,-1.616l-1.486,-1.255l-0.881,-0.459l-0.935,-0.34l-0.971,-0.221l-1.982,-0.095l-0.988,0.133l-1.906,0.693m19,0l-1.675,1.289l-0.688,0.83l-0.552,0.911l-0.408,0.96l-0.329,1.981l0.085,0.996l0.652,1.96l0.552,0.935l0.688,0.881l0.794,0.794l0.881,0.688l1.906,0.96l1.982,0.329l0.988,-0.085l1.906,-0.652l1.675,-1.24l0.692,-0.794l0.562,-0.881l0.434,-0.935l0.474,-1.959l0,-1.982l-0.177,-0.971l-0.297,-0.935l-0.996,-1.675l-1.486,-1.255l-0.881,-0.436l-0.935,-0.305l-0.971,-0.19l-1.982,-0.056l-0.988,0.141l-1.906,0.696m-68.109,10.971l-2,0l-1.0401,-1.671l-1.9259,-3.329l-0.9545,-1.841l-0.4028,-1l-0.2215,-0.488l-0.4552,-1.671l1.6705,0.02l1.4746,0.128l0.8557,0.17l1.7716,0.71l1.4421,1.29l0.8333,1.736l0.1204,1.906l-0.1412,0.88l-0.4282,1.489l-0.5988,1.671m17,-10l-0.297,1.671l-0.519,1.488l-0.85,1.841l-0.939,1.841l-0.47,1l-0.253,0.488l-0.672,1.671l-1.843,-0.995l-0.709,-0.615l-0.825,-1.538l-0.248,-1.852l0.117,-0.946l0.27,-0.907l0.422,-0.829l1.245,-1.29l1.635,-0.71l0.819,-0.17l1.45,-0.128l1.667,-0.02m40,10l-2,0l-1.04,-1.671l-1.926,-3.329l-0.955,-1.841l-0.402,-1l-0.222,-0.488l-0.455,-1.671l1.671,0.02l1.474,0.128l0.856,0.17l1.771,0.71l1.443,1.29l0.833,1.736l0.12,1.906l-0.141,0.88l-0.428,1.489l-0.599,1.671m18,-10l-0.729,1.671l-0.279,0.488l-0.518,1l-2.064,3.682l-0.481,1l-0.256,0.488l-0.673,1.671l-1.843,-0.995l-0.709,-0.615l-0.825,-1.538l-0.248,-1.852l0.117,-0.946l0.27,-0.907l0.422,-0.829l1.248,-1.29c0.762,-0.531 1.668,-0.739 2.567,-0.88l1.846,-0.129l2.155,-0.019m-83,2l0.8573,1.671l0.2762,0.486l0.9954,1.863l0.8742,1.824l0.5679,1.485l0.429,1.671l-1.6512,-0.471l-1.3611,-0.714l-1.4044,-1.249l-0.5424,-0.79l-0.5988,-1.761l0.0664,-1.698l0.3472,-0.801l1.1443,-1.516m28,0l-0.016,1.671l-0.093,1.474l-0.119,0.856l-0.513,1.775l-0.977,1.482l-1.35,0.999l-0.881,0.32l-2.051,0.423l0.661,-1.671l0.244,-0.487l0.458,-0.998l0.979,-1.81l1.136,-1.715l0.743,-0.802l0.336,-0.431l1.443,-1.086m29,0l0.857,1.671l0.276,0.486l0.996,1.863l0.874,1.824l0.568,1.485l0.429,1.671l-1.651,-0.471l-1.361,-0.714l-1.405,-1.249l-0.542,-0.79l-0.599,-1.761l0.066,-1.698l0.348,-0.801l1.144,-1.516m28,0l-0.016,1.671l-0.093,1.474l-0.119,0.856l-0.513,1.775l-0.977,1.482l-1.35,0.999l-0.881,0.32l-2.051,0.423l0.541,-1.671l0.248,-0.487l0.444,-0.998l1.03,-1.81l1.191,-1.715l0.756,-0.802l0.344,-0.431l1.446,-1.086z" fill="#333232" id="svg_1"/>
 </g>
</svg>